<svg xmlns="http://www.w3.org/2000/svg" width="50" height="50" viewBox="0 0 50 50"><path d="M25 3C12.862 3 3 12.862 3 25c0 11.02 8.128 20.138 18.713 21.729l1.148.173V29.566h-5.197v-3.52h5.197v-4.673c0-2.878.691-4.774 1.834-5.963 1.144-1.19 2.833-1.789 5.184-1.789 1.88 0 2.611.114 3.307.2v2.88h-2.448a3.59 3.59 0 00-3.119 1.807c-.591 1.032-.775 2.264-.775 3.52v4.017h6.123l-.545 3.52h-5.578V46.93l1.135-.155C38.714 45.32 47 36.127 47 25c0-12.138-9.862-22-22-22zm0 2c11.058 0 20 8.942 20 20 0 9.73-6.964 17.732-16.156 19.533V31.564h5.293l1.162-7.52h-6.455v-2.017c0-1.037.19-1.967.51-2.525.32-.558.628-.8 1.384-.8h4.448V12.01l-.868-.117c-.6-.082-1.969-.272-4.44-.272-2.702 0-5.022.736-6.624 2.402-1.602 1.666-2.393 4.147-2.393 7.35v2.674h-5.197v7.52h5.197V44.47C11.817 42.555 5 34.624 5 25 5 13.942 13.942 5 25 5z"/></svg>